<?xml version="1.0" encoding="utf-8"?>
<!-- Generator: Adobe Illustrator 28.2.0, SVG Export Plug-In . SVG Version: 6.00 Build 0)  -->
<svg version="1.1" id="Layer_1" xmlns:svg="http://www.w3.org/2000/svg"
	 xmlns="http://www.w3.org/2000/svg" xmlns:xlink="http://www.w3.org/1999/xlink" x="0px" y="0px" viewBox="0 0 373.6 229.2"
	 style="enable-background:new 0 0 373.6 229.2;" xml:space="preserve">
<style type="text/css">
	.st0{font-family:'Angkor-Regular';}
	.st1{font-size:132.0471px;}
	.st2{font-family:'Hondafont';}
	.st3{font-size:24px;}
</style>
<g>
	<path id="svg_7" d="M262.8,29.2c-2-20-15.4-24.2-27.1-26.2c-5.9-1-16.4-1.8-23.1-2.1c-5.9-0.4-19.7-0.6-23.9-0.6s-18,0.2-23.9,0.6
		C158.1,1.2,147.6,2,141.7,3c-11.7,2-25.1,6.2-27.1,26.2c-0.6,5.5-0.7,12.6-0.6,20.2c0.2,12.7,1.3,21.2,1.9,27.2
		c0.4,4.1,2.1,16.3,4.3,22.6c3,8.7,5.7,11.2,8.9,13.8c5.8,4.7,15.4,6.2,17.4,6.6c10.8,1.9,32.6,2.3,42.3,2.3
		c9.6,0,31.5-0.3,42.3-2.3c2-0.4,11.6-1.8,17.4-6.6c3.2-2.6,5.9-5.1,8.9-13.8c2.2-6.3,3.9-18.6,4.3-22.6c0.6-5.9,1.7-14.5,1.9-27.2
		C263.5,41.7,263.3,34.5,262.8,29.2 M255.4,62.8c-1.2,16-2.6,25.6-4.6,32.5c-1.8,6.1-4,10.1-7.2,13c-5.4,4.9-12.8,5.9-17.2,6.6
		c-9.4,1.4-25.3,1.9-37.7,1.9c-12.5,0-28.3-0.5-37.7-1.9c-4.4-0.7-11.8-1.7-17.2-6.6c-3.2-2.9-5.4-7-7.2-13
		c-2-6.9-3.5-16.5-4.6-32.5c-0.7-9.6-0.6-25.2,0.5-33.6c1.5-12.6,7.7-18.9,21-21.2c6.2-1.1,14.6-1.9,22.5-2.3
		c6.4-0.4,16.8-0.6,22.7-0.6c5.8-0.1,16.3,0.2,22.6,0.6c7.9,0.4,16.3,1.2,22.5,2.3c13.3,2.4,19.5,8.7,21.1,21.2
		C256,37.5,256.1,53.1,255.4,62.8"/>
</g>
<text transform="matrix(0.743 0 0 1 123.576 103.383)" class="st0 st1">80</text>
<text transform="matrix(1 0 0 1 106.0622 181.911)" class="st2 st3">AUTO</text>
</svg>
