<?xml version="1.0" encoding="utf-8"?>
<!-- Generator: Adobe Illustrator 28.2.0, SVG Export Plug-In . SVG Version: 6.00 Build 0)  -->
<svg version="1.1" id="Layer_1" xmlns:svg="http://www.w3.org/2000/svg"
	 xmlns="http://www.w3.org/2000/svg" xmlns:xlink="http://www.w3.org/1999/xlink" x="0px" y="0px" viewBox="0 0 275.3 174.5"
	 style="enable-background:new 0 0 275.3 174.5;" xml:space="preserve">
<g>
	<path id="svg_1" d="M31.8,146.2l4.2,0.5c1.9,0.2,2.1,1.8,2.1,2.8v4.9H18.8v-4.9c0-1,0.2-2.6,2.1-2.8l4.2-0.5v-4.2h-25v4.2l4.2,0.5
		c1.9,0.2,2.1,1.8,2.1,2.8v16.2c0,1-0.2,2.6-2.1,2.8l-4.2,0.5v4.2h25v-4.2l-4.2-0.5c-1.9-0.2-2.1-1.8-2.1-2.8v-4.9H38v4.9
		c0,1-0.2,2.6-2.1,2.8l-4.2,0.5v4.2h25v-4.2l-4.2-0.5c-1.9-0.2-2.1-1.8-2.1-2.8v-16.2c0-1,0.2-2.6,2.1-2.8l4.2-0.5v-4.2h-25v4.2
		H31.8z"/>
	<path id="svg_2" d="M198.3,142.1h-30.8v4.2l3.7,0.4c1.3,0.2,2.2,0.7,2.2,2.5v16.5c0,1-0.2,2.6-2.1,2.8l-4.2,0.5v4.2h31.2
		c11.2,0,20.4-4.5,20.4-15.6S209.5,142.1,198.3,142.1 M196,167.2h-10.5v-19.2H196c6.2,0,8.3,2.9,8.3,9.6
		C204.3,164.2,202.2,167.2,196,167.2"/>
	<path id="svg_3" d="M271.1,168.6c-2-0.2-2.6-1.5-3.2-2.4l-14.4-22c-1-1.6-1.8-2.1-3.3-2.1h-23.6v4.2l5.7,0.6c0.8,0.1,1.9,1.2,1,2.6
		l-10.7,17.3c-0.4,0.7-1,1.5-2.2,1.7l-4.2,0.5v4.2h19.9v-4.2l-3.4-0.3c-1.5-0.2-2.3-1.2-1.5-2.4l1.6-2.6H252l1.4,2.1
		c1.3,1.9-0.3,2.7-1.7,2.8l-3.5,0.4v4.2h27v-4.2L271.1,168.6z M236.1,158.1l5.9-9.6l6.3,9.6H236.1z"/>
	<path id="svg_4" d="M145.2,146.2l4.2,0.5c1.9,0.2,2.1,1.8,2.1,2.8v15.6L135,143.4c-0.7-1-1.4-1.3-3.2-1.3h-21.4v4.2l4.2,0.5
		c1.9,0.2,2.1,1.8,2.1,2.8v16.2c0,1-0.2,2.6-2.1,2.8l-4.2,0.5v4.2h20v-4.2l-4.2-0.5c-1.9-0.2-2.1-1.8-2.1-2.8v-15.6l16.5,21.7
		c0.8,1,1.4,1.3,3.2,1.3h0.2h15v-23.7c0-1,0.2-2.6,2.1-2.8l4.2-0.5v-4.2h-19.9L145.2,146.2L145.2,146.2z"/>
	<path id="svg_5" d="M83.5,140.9c-20.3,0-25.5,8.9-25.5,16.6s5.2,16.7,25.5,16.7s25.5-8.9,25.5-16.6
		C109,149.9,103.8,140.9,83.5,140.9 M83.5,168.4c-7.9,0-11.1-3.3-11.1-10.7S75.7,147,83.5,147c7.9,0,11.1,3.3,11.1,10.7
		S91.4,168.4,83.5,168.4"/>
	<path id="svg_6" d="M172.2,10.5c-3.4,15.3-4.8,22.4-7.6,33.4c-2.7,10.6-4.8,20.5-8.4,25.3c-3.6,4.9-8.5,5.9-11.8,6.3
		c-1.7,0.2-3,0.3-6.7,0.3s-5-0.1-6.7-0.3c-3.3-0.4-8.2-1.4-11.8-6.3c-3.6-4.8-5.7-14.7-8.3-25.3c-2.8-11.1-4.2-18.1-7.6-33.4
		c0,0-3.4,0.1-4.9,0.2c-2.1,0.1-3.7,0.3-5.4,0.5c0,0,2,31.5,2.9,44.9c0.9,14,2.6,37.7,4.1,55.6c0,0,2.9,0.5,7.7,0.7
		c5,0.3,7.3,0.3,7.3,0.3c2.1-7.9,4.6-18.8,7.5-23.5c2.4-3.8,6-4.2,8.1-4.5c3.2-0.4,6-0.5,7.2-0.5l0,0l0,0c1.3,0,4,0,7.2,0.5
		c2.1,0.3,5.7,0.7,8.1,4.5c2.9,4.7,5.5,15.6,7.5,23.5c0,0,2.2,0,7.2-0.3c4.8-0.3,7.7-0.7,7.7-0.7c1.5-17.9,3.2-41.5,4.1-55.6
		c0.9-13.3,2.9-44.9,2.9-44.9c-1.7-0.2-3.4-0.4-5.4-0.5C175.6,10.6,172.2,10.5,172.2,10.5"/>
	<path id="svg_7" d="M211.9,29.2c-2-20-15.4-24.2-27.1-26.2c-5.9-1-16.4-1.8-23.1-2.1c-5.9-0.4-19.7-0.6-23.9-0.6s-18,0.2-23.9,0.6
		c-6.7,0.3-17.2,1.1-23.1,2.1c-11.7,2-25.1,6.2-27.1,26.2c-0.6,5.5-0.7,12.6-0.6,20.2c0.2,12.7,1.3,21.2,1.9,27.2
		c0.4,4.1,2.1,16.3,4.3,22.6c3,8.7,5.7,11.2,8.9,13.8c5.8,4.7,15.4,6.2,17.4,6.6c10.8,1.9,32.6,2.3,42.3,2.3
		c9.6,0,31.5-0.3,42.3-2.3c2-0.4,11.6-1.8,17.4-6.6c3.2-2.6,5.9-5.1,8.9-13.8c2.2-6.3,3.9-18.6,4.3-22.6c0.6-5.9,1.7-14.5,1.9-27.2
		C212.6,41.7,212.4,34.5,211.9,29.2 M204.5,62.8c-1.2,16-2.6,25.6-4.6,32.5c-1.8,6.1-4,10.1-7.2,13c-5.4,4.9-12.8,5.9-17.2,6.6
		c-9.4,1.4-25.3,1.9-37.7,1.9c-12.5,0-28.3-0.5-37.7-1.9c-4.4-0.7-11.8-1.7-17.2-6.6c-3.2-2.9-5.4-7-7.2-13
		c-2-6.9-3.5-16.5-4.6-32.5c-0.7-9.6-0.6-25.2,0.5-33.6c1.5-12.6,7.7-18.9,21-21.2c6.2-1.1,14.6-1.9,22.5-2.3
		c6.4-0.4,16.8-0.6,22.7-0.6c5.8-0.1,16.3,0.2,22.6,0.6c7.9,0.4,16.3,1.2,22.5,2.3c13.3,2.4,19.5,8.7,21.1,21.2
		C205.1,37.5,205.2,53.1,204.5,62.8"/>
</g>
</svg>
